<?xml version="1.0" encoding="utf-8"?>
<!-- Generator: Adobe Illustrator 27.9.0, SVG Export Plug-In . SVG Version: 6.00 Build 0)  -->
<svg version="1.1" id="Layer_1" xmlns="http://www.w3.org/2000/svg" xmlns:xlink="http://www.w3.org/1999/xlink" x="0px" y="0px"
	 viewBox="0 0 595.28 841.89" style="enable-background:new 0 0 595.28 841.89;" xml:space="preserve">
<style type="text/css">
	.st0{fill:#4069B2;}
	.st1{fill:#4C82C2;}
	.st2{fill:#2DBAD1;}
</style>
<g>
	<path class="st0" d="M388.38,397.47c17.25,11.22,27.66,25.75,27.66,41.63c0,35.54-52.15,64.35-116.48,64.35
		s-116.48-28.81-116.48-64.35c0-16.96,11.88-32.39,31.29-43.88c-30.43,12.35-49.89,31.24-49.89,52.41
		c0,37.21,60.11,67.38,134.25,67.38S433,484.83,433,447.62C433,427.7,415.77,409.8,388.38,397.47z"/>
	<g>
		<path class="st1" d="M376.25,408c3.94,6.61,6.12,13.84,6.12,21.41c0,21.95-18.26,41.01-45.03,50.55
			c37.32-6.72,63.67-23.08,63.67-42.2C401,426.38,391.67,415.97,376.25,408z"/>
		<path class="st1" d="M214.26,429.41c0-6.86,1.78-13.43,5.05-19.52c-13.35,7.7-21.3,17.37-21.3,27.87
			c0,18.25,24.02,33.99,58.67,41.23C231.33,469.16,214.26,450.64,214.26,429.41z"/>
	</g>
	<path class="st2" d="M346.25,365.59c-2.5-6.4-9.94-17.57-24.82-39.93c-10.32-15.5-13.84-20.13-19.37-30.16
		c-6.44-11.66-10.7-21.74-13.29-28.43c0.15,6-0.19,14.91-2.87,25.15c-5.82,22.23-17.17,29.81-29.77,50.39
		c-9.42,15.39-22.33,36.49-20.24,61.97c0.41,5.02,2.77,33.72,27.26,49.83c17.51,11.51,42.63,14.15,62.16,2.21
		c21.63-13.22,25.57-37.69,26.95-46.26C355.55,389.95,349.33,373.48,346.25,365.59z M306.7,456.05
		C306.7,456.05,306.7,456.05,306.7,456.05c20.07-7.97,33.42-31.24,31.19-57.38c-0.68-7.96-2.74-15.41-5.87-22.05
		c6.33,7.54,10.52,17.16,11.43,27.88C345.57,429.28,329.47,451.23,306.7,456.05z"/>
</g>
</svg>
